<svg xmlns="http://www.w3.org/2000/svg" xmlns:xlink="http://www.w3.org/1999/xlink" width="500" zoomAndPan="magnify" viewBox="0 0 375 299.999988" height="400" preserveAspectRatio="xMidYMid meet" version="1.0"><defs><g/><clipPath id="ca9eae6355"><path d="M 282 103 L 373 103 L 373 206 L 282 206 Z M 282 103 " clip-rule="nonzero"/></clipPath><clipPath id="68d908ef50"><path d="M 301.230469 89.875 L 388.636719 133.070312 L 347.769531 215.773438 L 260.359375 172.578125 Z M 301.230469 89.875 " clip-rule="nonzero"/></clipPath><clipPath id="5107d3e560"><path d="M 301.230469 89.875 L 388.636719 133.070312 L 347.769531 215.773438 L 260.359375 172.578125 Z M 301.230469 89.875 " clip-rule="nonzero"/></clipPath><clipPath id="2ac88a7fb4"><path d="M 43.863281 7.039062 L 239.613281 7.039062 L 239.613281 73 L 43.863281 73 Z M 43.863281 7.039062 " clip-rule="nonzero"/></clipPath></defs><g fill="#f0810f" fill-opacity="1"><g transform="translate(6.144219, 167.840771)"><g><path d="M 39.90625 -49.90625 C 39.832031 -50.125 40.046875 -50.6875 40.546875 -51.59375 C 41.054688 -52.5 41.617188 -53.617188 42.234375 -54.953125 C 42.847656 -56.296875 43.460938 -57.816406 44.078125 -59.515625 C 44.703125 -61.222656 45.140625 -62.984375 45.390625 -64.796875 C 45.640625 -66.609375 45.617188 -68.421875 45.328125 -70.234375 C 45.046875 -72.046875 44.285156 -73.785156 43.046875 -75.453125 C 42.328125 -76.316406 41.257812 -76.800781 39.84375 -76.90625 C 38.425781 -77.019531 36.828125 -76.804688 35.046875 -76.265625 C 33.273438 -75.722656 31.429688 -74.890625 29.515625 -73.765625 C 27.597656 -72.640625 25.84375 -71.332031 24.25 -69.84375 C 22.65625 -68.363281 21.296875 -66.71875 20.171875 -64.90625 C 19.046875 -63.09375 18.410156 -61.242188 18.265625 -59.359375 C 18.117188 -57.835938 18.171875 -56.421875 18.421875 -55.109375 C 18.679688 -53.804688 19.023438 -52.613281 19.453125 -51.53125 C 19.890625 -50.445312 20.363281 -49.429688 20.875 -48.484375 C 21.382812 -47.546875 21.851562 -46.710938 22.28125 -45.984375 C 22.863281 -44.972656 23.769531 -43.847656 25 -42.609375 C 26.238281 -41.378906 27.582031 -39.984375 29.03125 -38.421875 C 30.476562 -36.867188 31.925781 -35.113281 33.375 -33.15625 C 34.820312 -31.195312 36.085938 -28.984375 37.171875 -26.515625 C 38.265625 -24.054688 39.03125 -21.304688 39.46875 -18.265625 C 39.90625 -15.222656 39.867188 -11.851562 39.359375 -8.15625 C 38.554688 -2.789062 37.285156 1.679688 35.546875 5.265625 C 33.804688 8.859375 31.90625 11.738281 29.84375 13.90625 C 27.78125 16.082031 25.695312 17.660156 23.59375 18.640625 C 21.488281 19.617188 19.75 20.253906 18.375 20.546875 C 17.289062 20.765625 16.003906 20.960938 14.515625 21.140625 C 13.023438 21.328125 11.460938 21.289062 9.828125 21.03125 C 8.203125 20.78125 6.554688 20.273438 4.890625 19.515625 C 3.222656 18.753906 1.738281 17.578125 0.4375 15.984375 C -1.082031 14.171875 -2.28125 12.210938 -3.15625 10.109375 C -3.945312 8.296875 -4.539062 6.210938 -4.9375 3.859375 C -5.34375 1.503906 -5.144531 -0.941406 -4.34375 -3.484375 C -3.769531 -4.128906 -3.15625 -4.707031 -2.5 -5.21875 C -1.84375 -5.726562 -1.191406 -6.160156 -0.546875 -6.515625 C 0.179688 -6.953125 0.941406 -7.351562 1.734375 -7.71875 C 2.679688 -8.007812 3.625 -8.265625 4.5625 -8.484375 C 5.363281 -8.628906 6.21875 -8.71875 7.125 -8.75 C 8.03125 -8.789062 8.878906 -8.664062 9.671875 -8.375 C 8.585938 -7.132812 7.828125 -5.972656 7.390625 -4.890625 C 7.097656 -4.304688 6.878906 -3.800781 6.734375 -3.375 C 6.453125 -1.988281 6.363281 -0.335938 6.46875 1.578125 C 6.570312 3.492188 6.96875 5.335938 7.65625 7.109375 C 8.351562 8.890625 9.351562 10.414062 10.65625 11.6875 C 11.957031 12.957031 13.695312 13.628906 15.875 13.703125 C 21.164062 13.847656 25.660156 9.710938 29.359375 1.296875 C 30.585938 -1.304688 31.21875 -3.945312 31.25 -6.625 C 31.289062 -9.3125 30.96875 -11.882812 30.28125 -14.34375 C 29.59375 -16.8125 28.6875 -19.113281 27.5625 -21.25 C 26.4375 -23.394531 25.296875 -25.226562 24.140625 -26.75 C 22.972656 -28.269531 21.570312 -29.914062 19.9375 -31.6875 C 18.3125 -33.46875 16.703125 -35.40625 15.109375 -37.5 C 13.515625 -39.601562 12.082031 -41.882812 10.8125 -44.34375 C 9.550781 -46.8125 8.703125 -49.5 8.265625 -52.40625 C 7.679688 -56.457031 8.0625 -60.171875 9.40625 -63.546875 C 10.75 -66.921875 12.5625 -69.875 14.84375 -72.40625 C 17.125 -74.945312 19.625 -77.015625 22.34375 -78.609375 C 25.0625 -80.203125 27.472656 -81.210938 29.578125 -81.640625 C 41.242188 -83.960938 48.890625 -82.007812 52.515625 -75.78125 C 54.035156 -73.382812 54.867188 -70.84375 55.015625 -68.15625 C 55.160156 -65.476562 54.992188 -63 54.515625 -60.71875 C 54.046875 -58.4375 53.46875 -56.515625 52.78125 -54.953125 C 52.09375 -53.398438 51.640625 -52.550781 51.421875 -52.40625 C 50.984375 -51.96875 50.289062 -51.492188 49.34375 -50.984375 C 48.40625 -50.484375 46.890625 -50.015625 44.796875 -49.578125 C 44.210938 -49.429688 43.628906 -49.359375 43.046875 -49.359375 C 42.546875 -49.359375 42.003906 -49.394531 41.421875 -49.46875 C 40.835938 -49.539062 40.332031 -49.6875 39.90625 -49.90625 Z M 39.90625 -49.90625 "/></g></g></g><g fill="#f0810f" fill-opacity="1"><g transform="translate(58.976466, 167.840771)"><g><path d="M 56.640625 -18.8125 C 55.628906 -16.195312 54.46875 -13.65625 53.15625 -11.1875 C 51.851562 -8.726562 50.40625 -6.519531 48.8125 -4.5625 C 47.21875 -2.601562 45.515625 -1.046875 43.703125 0.109375 C 41.890625 1.265625 39.929688 1.84375 37.828125 1.84375 C 34.421875 1.84375 31.847656 0.703125 30.109375 -1.578125 C 28.367188 -3.859375 27.175781 -6.664062 26.53125 -10 C 25.507812 -8.476562 24.421875 -6.957031 23.265625 -5.4375 C 22.109375 -3.914062 20.875 -2.570312 19.5625 -1.40625 C 18.257812 -0.25 16.921875 0.6875 15.546875 1.40625 C 14.171875 2.132812 12.796875 2.5 11.421875 2.5 C 9.535156 2.5 7.9375 2.097656 6.625 1.296875 C 5.320312 0.503906 4.253906 -0.59375 3.421875 -2 C 2.585938 -3.414062 1.988281 -5.046875 1.625 -6.890625 C 1.269531 -8.742188 1.09375 -10.722656 1.09375 -12.828125 L 1.09375 -14.140625 C 1.09375 -16.816406 1.304688 -19.566406 1.734375 -22.390625 C 2.171875 -25.222656 2.660156 -27.832031 3.203125 -30.21875 C 3.742188 -32.613281 4.304688 -34.695312 4.890625 -36.46875 C 5.472656 -38.25 5.910156 -39.429688 6.203125 -40.015625 C 6.703125 -40.734375 7.800781 -41.4375 9.5 -42.125 C 11.207031 -42.8125 12.894531 -43.082031 14.5625 -42.9375 C 15.363281 -42.863281 15.78125 -42.535156 15.8125 -41.953125 C 15.851562 -41.378906 15.765625 -40.660156 15.546875 -39.796875 C 15.253906 -38.554688 14.742188 -36.703125 14.015625 -34.234375 C 13.296875 -31.773438 12.554688 -29.097656 11.796875 -26.203125 C 11.035156 -23.304688 10.363281 -20.441406 9.78125 -17.609375 C 9.207031 -14.785156 8.921875 -12.429688 8.921875 -10.546875 C 8.921875 -8.222656 9.28125 -6.550781 10 -5.53125 C 10.726562 -4.519531 11.851562 -4.015625 13.375 -4.015625 C 15.1875 -4.015625 17.195312 -5.03125 19.40625 -7.0625 C 21.613281 -9.09375 23.769531 -12.535156 25.875 -17.390625 C 25.800781 -17.828125 25.765625 -18.265625 25.765625 -18.703125 C 25.765625 -19.140625 25.765625 -19.609375 25.765625 -20.109375 C 25.765625 -23.367188 25.890625 -26.484375 26.140625 -29.453125 C 26.398438 -32.429688 26.910156 -35.039062 27.671875 -37.28125 C 28.429688 -39.53125 29.476562 -41.304688 30.8125 -42.609375 C 32.15625 -43.921875 33.914062 -44.578125 36.09375 -44.578125 C 36.96875 -44.578125 37.691406 -44.320312 38.265625 -43.8125 C 38.847656 -43.300781 39.140625 -42.578125 39.140625 -41.640625 C 39.140625 -39.316406 38.320312 -36.035156 36.6875 -31.796875 C 35.0625 -27.554688 33.125 -22.898438 30.875 -17.828125 C 30.65625 -17.535156 30.507812 -17.242188 30.4375 -16.953125 C 30.65625 -15.578125 30.925781 -14.128906 31.25 -12.609375 C 31.582031 -11.085938 32.035156 -9.691406 32.609375 -8.421875 C 33.191406 -7.148438 33.878906 -6.097656 34.671875 -5.265625 C 35.472656 -4.429688 36.421875 -4.015625 37.515625 -4.015625 C 39.109375 -4.015625 40.570312 -4.773438 41.90625 -6.296875 C 43.25 -7.828125 44.445312 -9.675781 45.5 -11.84375 C 46.550781 -14.019531 47.472656 -16.320312 48.265625 -18.75 C 49.066406 -21.175781 49.6875 -23.332031 50.125 -25.21875 C 49.90625 -26.019531 49.722656 -26.800781 49.578125 -27.5625 C 49.429688 -28.320312 49.359375 -29.207031 49.359375 -30.21875 C 49.359375 -32.46875 49.679688 -34.390625 50.328125 -35.984375 C 50.984375 -37.578125 51.835938 -38.898438 52.890625 -39.953125 C 53.941406 -41.003906 55.066406 -41.78125 56.265625 -42.28125 C 57.460938 -42.789062 58.566406 -43.046875 59.578125 -43.046875 C 61.390625 -43.046875 62.296875 -42.25 62.296875 -40.65625 C 62.296875 -39.5 62.003906 -37.488281 61.421875 -34.625 C 60.847656 -31.757812 60.015625 -28.515625 58.921875 -24.890625 C 60.222656 -24.316406 61.890625 -24.03125 63.921875 -24.03125 C 65.804688 -24.03125 67.546875 -24.265625 69.140625 -24.734375 C 70.734375 -25.203125 72.179688 -25.796875 73.484375 -26.515625 C 74.796875 -27.242188 75.992188 -28.039062 77.078125 -28.90625 C 78.171875 -29.78125 79.222656 -30.617188 80.234375 -31.421875 C 81.035156 -32.003906 81.6875 -32.039062 82.1875 -31.53125 C 82.695312 -31.019531 82.625 -30.222656 81.96875 -29.140625 C 81.394531 -28.191406 80.398438 -27.101562 78.984375 -25.875 C 77.566406 -24.644531 75.863281 -23.46875 73.875 -22.34375 C 71.882812 -21.21875 69.671875 -20.273438 67.234375 -19.515625 C 64.804688 -18.753906 62.253906 -18.375 59.578125 -18.375 C 59.140625 -18.375 58.664062 -18.410156 58.15625 -18.484375 C 57.65625 -18.554688 57.148438 -18.664062 56.640625 -18.8125 Z M 56.640625 -18.8125 "/></g></g></g><g fill="#f0810f" fill-opacity="1"><g transform="translate(130.941378, 167.840771)"><g><path d="M 49.25 -22.609375 C 47.070312 -19.421875 44.601562 -16.320312 41.84375 -13.3125 C 39.09375 -10.3125 36.175781 -7.628906 33.09375 -5.265625 C 30.019531 -2.910156 26.867188 -1.007812 23.640625 0.4375 C 20.421875 1.882812 17.285156 2.609375 14.234375 2.609375 C 12.640625 2.609375 10.921875 2.226562 9.078125 1.46875 C 7.234375 0.707031 5.546875 -0.46875 4.015625 -2.0625 C 2.492188 -3.65625 1.28125 -5.71875 0.375 -8.25 C -0.53125 -10.789062 -0.800781 -13.875 -0.4375 -17.5 C -0.144531 -20.476562 0.773438 -23.613281 2.328125 -26.90625 C 3.890625 -30.207031 5.8125 -33.234375 8.09375 -35.984375 C 10.382812 -38.742188 12.957031 -41.023438 15.8125 -42.828125 C 18.675781 -44.640625 21.5625 -45.546875 24.46875 -45.546875 C 27.21875 -45.546875 29.207031 -44.859375 30.4375 -43.484375 C 31.675781 -42.109375 32.222656 -40.40625 32.078125 -38.375 C 31.859375 -36.125 31.222656 -34.054688 30.171875 -32.171875 C 29.117188 -30.296875 27.867188 -28.59375 26.421875 -27.0625 C 24.972656 -25.539062 23.429688 -24.164062 21.796875 -22.9375 C 20.171875 -21.707031 18.628906 -20.582031 17.171875 -19.5625 C 15.578125 -18.476562 14.054688 -17.445312 12.609375 -16.46875 C 11.160156 -15.488281 9.894531 -14.601562 8.8125 -13.8125 C 8.882812 -12 9.207031 -10.472656 9.78125 -9.234375 C 10.363281 -8.003906 11.085938 -7.007812 11.953125 -6.25 C 12.828125 -5.488281 13.828125 -4.941406 14.953125 -4.609375 C 16.078125 -4.285156 17.21875 -4.125 18.375 -4.125 C 20.832031 -4.125 23.398438 -4.90625 26.078125 -6.46875 C 28.765625 -8.03125 31.394531 -9.914062 33.96875 -12.125 C 36.539062 -14.332031 38.929688 -16.628906 41.140625 -19.015625 C 43.359375 -21.410156 45.191406 -23.476562 46.640625 -25.21875 C 47.148438 -25.800781 47.675781 -26.144531 48.21875 -26.25 C 48.757812 -26.363281 49.191406 -26.289062 49.515625 -26.03125 C 49.847656 -25.78125 50.015625 -25.347656 50.015625 -24.734375 C 50.015625 -24.117188 49.757812 -23.410156 49.25 -22.609375 Z M 21.421875 -39.359375 C 20.546875 -39.359375 19.507812 -38.921875 18.3125 -38.046875 C 17.125 -37.179688 15.945312 -35.929688 14.78125 -34.296875 C 13.625 -32.671875 12.535156 -30.675781 11.515625 -28.3125 C 10.503906 -25.957031 9.742188 -23.257812 9.234375 -20.21875 C 10.109375 -20.875 11.050781 -21.546875 12.0625 -22.234375 C 13.082031 -22.921875 14.097656 -23.664062 15.109375 -24.46875 C 18.222656 -26.851562 20.394531 -28.953125 21.625 -30.765625 C 22.863281 -32.578125 23.554688 -34.132812 23.703125 -35.4375 C 23.847656 -36.820312 23.703125 -37.820312 23.265625 -38.4375 C 22.828125 -39.050781 22.210938 -39.359375 21.421875 -39.359375 Z M 21.421875 -39.359375 "/></g></g></g><g fill="#f0810f" fill-opacity="1"><g transform="translate(172.359251, 167.840771)"><g><path d="M 49.25 -22.609375 C 47.070312 -19.421875 44.601562 -16.320312 41.84375 -13.3125 C 39.09375 -10.3125 36.175781 -7.628906 33.09375 -5.265625 C 30.019531 -2.910156 26.867188 -1.007812 23.640625 0.4375 C 20.421875 1.882812 17.285156 2.609375 14.234375 2.609375 C 12.640625 2.609375 10.921875 2.226562 9.078125 1.46875 C 7.234375 0.707031 5.546875 -0.46875 4.015625 -2.0625 C 2.492188 -3.65625 1.28125 -5.71875 0.375 -8.25 C -0.53125 -10.789062 -0.800781 -13.875 -0.4375 -17.5 C -0.144531 -20.476562 0.773438 -23.613281 2.328125 -26.90625 C 3.890625 -30.207031 5.8125 -33.234375 8.09375 -35.984375 C 10.382812 -38.742188 12.957031 -41.023438 15.8125 -42.828125 C 18.675781 -44.640625 21.5625 -45.546875 24.46875 -45.546875 C 27.21875 -45.546875 29.207031 -44.859375 30.4375 -43.484375 C 31.675781 -42.109375 32.222656 -40.40625 32.078125 -38.375 C 31.859375 -36.125 31.222656 -34.054688 30.171875 -32.171875 C 29.117188 -30.296875 27.867188 -28.59375 26.421875 -27.0625 C 24.972656 -25.539062 23.429688 -24.164062 21.796875 -22.9375 C 20.171875 -21.707031 18.628906 -20.582031 17.171875 -19.5625 C 15.578125 -18.476562 14.054688 -17.445312 12.609375 -16.46875 C 11.160156 -15.488281 9.894531 -14.601562 8.8125 -13.8125 C 8.882812 -12 9.207031 -10.472656 9.78125 -9.234375 C 10.363281 -8.003906 11.085938 -7.007812 11.953125 -6.25 C 12.828125 -5.488281 13.828125 -4.941406 14.953125 -4.609375 C 16.078125 -4.285156 17.21875 -4.125 18.375 -4.125 C 20.832031 -4.125 23.398438 -4.90625 26.078125 -6.46875 C 28.765625 -8.03125 31.394531 -9.914062 33.96875 -12.125 C 36.539062 -14.332031 38.929688 -16.628906 41.140625 -19.015625 C 43.359375 -21.410156 45.191406 -23.476562 46.640625 -25.21875 C 47.148438 -25.800781 47.675781 -26.144531 48.21875 -26.25 C 48.757812 -26.363281 49.191406 -26.289062 49.515625 -26.03125 C 49.847656 -25.78125 50.015625 -25.347656 50.015625 -24.734375 C 50.015625 -24.117188 49.757812 -23.410156 49.25 -22.609375 Z M 21.421875 -39.359375 C 20.546875 -39.359375 19.507812 -38.921875 18.3125 -38.046875 C 17.125 -37.179688 15.945312 -35.929688 14.78125 -34.296875 C 13.625 -32.671875 12.535156 -30.675781 11.515625 -28.3125 C 10.503906 -25.957031 9.742188 -23.257812 9.234375 -20.21875 C 10.109375 -20.875 11.050781 -21.546875 12.0625 -22.234375 C 13.082031 -22.921875 14.097656 -23.664062 15.109375 -24.46875 C 18.222656 -26.851562 20.394531 -28.953125 21.625 -30.765625 C 22.863281 -32.578125 23.554688 -34.132812 23.703125 -35.4375 C 23.847656 -36.820312 23.703125 -37.820312 23.265625 -38.4375 C 22.828125 -39.050781 22.210938 -39.359375 21.421875 -39.359375 Z M 21.421875 -39.359375 "/></g></g></g><g fill="#f0810f" fill-opacity="1"><g transform="translate(213.777124, 167.840771)"><g><path d="M 40.125 -27.5 C 40.40625 -27.9375 40.78125 -28.207031 41.25 -28.3125 C 41.726562 -28.425781 42.109375 -28.375 42.390625 -28.15625 C 42.679688 -27.9375 42.84375 -27.570312 42.875 -27.0625 C 42.914062 -26.5625 42.722656 -25.875 42.296875 -25 C 40.847656 -22.25 38.941406 -19.28125 36.578125 -16.09375 C 34.222656 -12.90625 31.738281 -9.914062 29.125 -7.125 C 26.519531 -4.332031 23.984375 -2.03125 21.515625 -0.21875 C 19.054688 1.59375 16.992188 2.5 15.328125 2.5 C 12.929688 2.5 10.9375 2.023438 9.34375 1.078125 C 7.75 0.140625 6.5 -1.015625 5.59375 -2.390625 C 4.6875 -3.765625 4.050781 -5.265625 3.6875 -6.890625 C 3.332031 -8.523438 3.226562 -10.035156 3.375 -11.421875 C 3.445312 -12.578125 3.695312 -14.65625 4.125 -17.65625 C 4.5625 -20.664062 5.140625 -24.144531 5.859375 -28.09375 C 6.585938 -32.050781 7.40625 -36.296875 8.3125 -40.828125 C 9.21875 -45.359375 10.179688 -49.722656 11.203125 -53.921875 C 9.960938 -53.773438 8.726562 -53.628906 7.5 -53.484375 C 6.269531 -53.335938 5.144531 -53.265625 4.125 -53.265625 C 1.8125 -53.265625 -0.375 -53.535156 -2.4375 -54.078125 C -4.507812 -54.628906 -6.050781 -55.160156 -7.0625 -55.671875 C -7.644531 -55.953125 -7.898438 -56.363281 -7.828125 -56.90625 C -7.753906 -57.457031 -7.535156 -58.003906 -7.171875 -58.546875 C -6.804688 -59.085938 -6.351562 -59.554688 -5.8125 -59.953125 C -5.269531 -60.359375 -4.78125 -60.5625 -4.34375 -60.5625 C -2.96875 -60.414062 -1.484375 -60.285156 0.109375 -60.171875 C 1.703125 -60.066406 3.441406 -60.050781 5.328125 -60.125 C 6.703125 -60.195312 8.023438 -60.304688 9.296875 -60.453125 C 10.566406 -60.597656 11.816406 -60.773438 13.046875 -60.984375 C 13.984375 -64.460938 14.90625 -67.488281 15.8125 -70.0625 C 16.71875 -72.632812 17.535156 -74.429688 18.265625 -75.453125 C 18.484375 -75.816406 18.972656 -76.125 19.734375 -76.375 C 20.492188 -76.625 21.304688 -76.800781 22.171875 -76.90625 C 23.046875 -77.019531 23.878906 -77.019531 24.671875 -76.90625 C 25.472656 -76.800781 26.054688 -76.535156 26.421875 -76.109375 C 26.785156 -75.523438 26.929688 -74.035156 26.859375 -71.640625 C 26.785156 -69.253906 26.382812 -66.210938 25.65625 -62.515625 C 28.695312 -62.515625 31.394531 -62.347656 33.75 -62.015625 C 36.113281 -61.691406 38.128906 -61.332031 39.796875 -60.9375 C 41.460938 -60.539062 42.800781 -60.140625 43.8125 -59.734375 C 44.820312 -59.335938 45.582031 -59.066406 46.09375 -58.921875 C 46.601562 -58.773438 46.875 -58.410156 46.90625 -57.828125 C 46.945312 -57.253906 46.835938 -56.660156 46.578125 -56.046875 C 46.328125 -55.429688 45.910156 -54.90625 45.328125 -54.46875 C 44.753906 -54.03125 44.101562 -53.882812 43.375 -54.03125 C 42.65625 -54.101562 41.84375 -54.25 40.9375 -54.46875 C 40.03125 -54.6875 38.941406 -54.867188 37.671875 -55.015625 C 36.398438 -55.160156 34.894531 -55.304688 33.15625 -55.453125 C 31.414062 -55.597656 29.390625 -55.671875 27.078125 -55.671875 C 26.640625 -55.671875 26.144531 -55.648438 25.59375 -55.609375 C 25.050781 -55.578125 24.492188 -55.5625 23.921875 -55.5625 C 23.628906 -54.394531 23.351562 -53.25 23.09375 -52.125 C 22.84375 -51.007812 22.5 -49.832031 22.0625 -48.59375 C 21.125 -45.695312 20.039062 -42.546875 18.8125 -39.140625 C 17.71875 -36.171875 16.410156 -32.765625 14.890625 -28.921875 C 13.367188 -25.078125 11.664062 -20.984375 9.78125 -16.640625 C 9.34375 -13.515625 9.394531 -11.132812 9.9375 -9.5 C 10.488281 -7.875 11.160156 -6.703125 11.953125 -5.984375 C 12.898438 -5.179688 14.0625 -4.742188 15.4375 -4.671875 C 16.519531 -4.523438 17.84375 -4.90625 19.40625 -5.8125 C 20.96875 -6.71875 22.582031 -7.929688 24.25 -9.453125 C 25.914062 -10.972656 27.597656 -12.640625 29.296875 -14.453125 C 31.003906 -16.265625 32.582031 -18.039062 34.03125 -19.78125 C 35.476562 -21.519531 36.742188 -23.097656 37.828125 -24.515625 C 38.921875 -25.929688 39.6875 -26.925781 40.125 -27.5 Z M 40.125 -27.5 "/></g></g></g><g clip-path="url(#ca9eae6355)"><g clip-path="url(#68d908ef50)"><g clip-path="url(#5107d3e560)"><path fill="#f0810f" d="M 360.332031 119.183594 C 360.152344 119.097656 359.964844 119.015625 359.777344 118.9375 C 351.910156 116.609375 344.136719 122.3125 340.214844 128.792969 C 336.339844 134.511719 335.144531 143.738281 341.195312 148.441406 C 342.078125 149.109375 343.136719 149.523438 344.21875 149.738281 C 353.667969 151.019531 362.046875 143.203125 364.808594 134.660156 C 367.011719 129.351562 365.902344 121.847656 360.332031 119.183594 Z M 329.449219 104.332031 C 324.890625 102.214844 319.121094 105.054688 316.28125 109.003906 C 310.566406 116.78125 309.203125 129.28125 316.738281 136.355469 C 317.480469 136.945312 318.328125 137.390625 319.234375 137.675781 C 325.71875 139.636719 331.582031 134.164062 334.015625 128.609375 C 337.375 121.359375 337.75 111.238281 331.316406 105.554688 C 330.726562 105.035156 330.101562 104.632812 329.449219 104.332031 Z M 367.84375 153.410156 C 359.816406 150.027344 350.628906 155.171875 346.273438 162.066406 C 342.648438 166.800781 341.976562 175.195312 347.746094 178.566406 C 356.128906 182.578125 366.21875 176.472656 370.246094 168.921875 C 373.277344 164.109375 373.335938 156.476562 367.84375 153.410156 Z M 298.769531 121.429688 C 295.46875 119.761719 291.226562 120.136719 288.472656 122.976562 C 281.121094 130.578125 281.277344 144.878906 289.890625 151.496094 C 293.539062 154.148438 298.554688 152.8125 301.363281 149.617188 C 307.355469 142.765625 307.578125 131.480469 302.066406 124.304688 C 301.210938 123.050781 300.0625 122.082031 298.769531 121.429688 Z M 325.710938 154.882812 C 319.203125 151.683594 310.96875 151.722656 304.332031 154.5625 C 296.953125 158.042969 289.933594 162.871094 284.902344 169.382812 C 280.558594 173.714844 281.613281 181.6875 287.152344 184.472656 C 293.746094 187.960938 301.765625 186.203125 308.582031 189.148438 C 314.648438 191.074219 318.25 196.507812 322.371094 200.9375 C 325.773438 204.921875 332.089844 207.160156 336.59375 203.597656 C 340.671875 199.710938 340.617188 193.394531 340.585938 188.136719 C 339.652344 179.167969 338.582031 169.703125 333.621094 161.941406 C 331.652344 158.78125 328.890625 156.445312 325.710938 154.882812 Z M 325.710938 154.882812 " fill-opacity="1" fill-rule="nonzero"/></g></g></g><g clip-path="url(#2ac88a7fb4)"><path fill="#f0810f" d="M 239.574219 69.792969 C 235.125 72.773438 229.140625 73.011719 224.355469 69.917969 C 199.753906 54.023438 154.890625 25.03125 146.164062 19.394531 C 143.535156 17.695312 141.707031 17.554688 141.707031 17.554688 C 140.65625 17.554688 139.628906 17.859375 138.746094 18.429688 C 138.746094 18.429688 86.394531 52.253906 59.0625 69.917969 C 54.273438 73.011719 48.292969 72.773438 43.839844 69.792969 L 139.433594 8.023438 C 140.820312 7.128906 142.601562 7.128906 143.984375 8.023438 Z M 239.574219 69.792969 " fill-opacity="1" fill-rule="evenodd"/></g><path fill="#f0810f" d="M 136.578125 42.035156 C 127.613281 42.035156 120.351562 49.289062 120.351562 58.242188 L 136.578125 58.242188 Z M 136.578125 42.035156 " fill-opacity="1" fill-rule="evenodd"/><path fill="#f0810f" d="M 120.351562 65.730469 L 136.582031 65.730469 L 136.582031 81.941406 L 120.351562 81.941406 Z M 120.351562 65.730469 " fill-opacity="1" fill-rule="evenodd"/><path fill="#f0810f" d="M 144.699219 65.730469 L 160.929688 65.730469 L 160.929688 81.941406 L 144.699219 81.941406 Z M 144.699219 65.730469 " fill-opacity="1" fill-rule="evenodd"/><path fill="#f0810f" d="M 144.703125 42.035156 C 153.667969 42.035156 160.933594 49.289062 160.933594 58.242188 L 144.703125 58.242188 Z M 144.703125 42.035156 " fill-opacity="1" fill-rule="evenodd"/><g fill="#f0810f" fill-opacity="1"><g transform="translate(128.657663, 273.52015)"><g><path d="M 2.5 20.546875 C 0.757812 20.546875 -0.304688 20.347656 -0.703125 19.953125 C -1.097656 19.554688 -1.15625 18.773438 -0.875 17.609375 C -0.800781 17.242188 -0.4375 15.628906 0.21875 12.765625 C 0.875 9.910156 1.6875 6.429688 2.65625 2.328125 C 3.632812 -1.765625 4.6875 -6.203125 5.8125 -10.984375 C 6.9375 -15.765625 8.007812 -20.257812 9.03125 -24.46875 C 7.5 -24.320312 6.367188 -24.445312 5.640625 -24.84375 C 4.921875 -25.238281 4.578125 -25.78125 4.609375 -26.46875 C 4.648438 -27.15625 5.050781 -27.863281 5.8125 -28.59375 C 6.570312 -29.320312 7.675781 -29.9375 9.125 -30.4375 C 9.414062 -30.582031 9.851562 -30.726562 10.4375 -30.875 C 10.800781 -32.101562 11.128906 -33.375 11.421875 -34.6875 C 11.703125 -35.769531 11.988281 -36.925781 12.28125 -38.15625 C 12.570312 -39.394531 12.863281 -40.59375 13.15625 -41.75 L 20.765625 -74.25 C 21.203125 -75.914062 21.875 -77.164062 22.78125 -78 C 23.6875 -78.832031 25.367188 -79.539062 27.828125 -80.125 C 29.859375 -80.632812 31.269531 -80.832031 32.0625 -80.71875 C 32.863281 -80.613281 33.226562 -80.378906 33.15625 -80.015625 C 32.9375 -79.222656 32.390625 -77.300781 31.515625 -74.25 C 30.648438 -71.207031 29.617188 -67.492188 28.421875 -63.109375 C 27.234375 -58.722656 25.945312 -53.898438 24.5625 -48.640625 C 23.1875 -43.390625 21.847656 -38.191406 20.546875 -33.046875 C 24.898438 -33.703125 30.191406 -34.25 36.421875 -34.6875 C 38.816406 -34.96875 41.15625 -35.144531 43.4375 -35.21875 C 45.71875 -35.289062 47.910156 -35.289062 50.015625 -35.21875 C 51.023438 -39.132812 52.019531 -43.050781 53 -46.96875 C 53.976562 -50.882812 54.898438 -54.507812 55.765625 -57.84375 C 56.640625 -61.175781 57.421875 -64.128906 58.109375 -66.703125 C 58.796875 -69.273438 59.320312 -71.175781 59.6875 -72.40625 C 60.125 -73.78125 60.539062 -74.898438 60.9375 -75.765625 C 61.332031 -76.640625 61.800781 -77.332031 62.34375 -77.84375 C 62.894531 -78.351562 63.53125 -78.710938 64.25 -78.921875 C 64.976562 -79.140625 65.8125 -79.320312 66.75 -79.46875 C 67.257812 -79.46875 67.878906 -79.503906 68.609375 -79.578125 C 69.179688 -79.578125 69.863281 -79.59375 70.65625 -79.625 C 71.457031 -79.664062 72.367188 -79.613281 73.390625 -79.46875 C 70.628906 -72.082031 68.070312 -64.597656 65.71875 -57.015625 C 63.363281 -49.441406 61.171875 -42.070312 59.140625 -34.90625 C 60.441406 -34.757812 61.582031 -34.648438 62.5625 -34.578125 C 63.539062 -34.503906 64.320312 -34.394531 64.90625 -34.25 C 66.644531 -33.957031 67.75 -33.484375 68.21875 -32.828125 C 68.6875 -32.179688 68.523438 -31.238281 67.734375 -30 L 66.421875 -28.375 C 65.992188 -27.789062 65.453125 -27.117188 64.796875 -26.359375 C 64.140625 -25.597656 63.304688 -24.75 62.296875 -23.8125 C 61.710938 -24.03125 61.113281 -24.242188 60.5 -24.453125 C 59.882812 -24.671875 59.285156 -24.890625 58.703125 -25.109375 C 57.984375 -25.328125 57.296875 -25.546875 56.640625 -25.765625 C 56.128906 -24.023438 55.65625 -22.335938 55.21875 -20.703125 C 54.789062 -19.078125 54.394531 -17.429688 54.03125 -15.765625 C 53.164062 -12.210938 52.332031 -8.550781 51.53125 -4.78125 C 50.875 -1.519531 50.203125 2.082031 49.515625 6.03125 C 48.828125 9.976562 48.300781 13.875 47.9375 17.71875 C 47.363281 18.007812 46.785156 18.207031 46.203125 18.3125 C 45.617188 18.425781 45.113281 18.519531 44.6875 18.59375 C 44.175781 18.664062 43.664062 18.738281 43.15625 18.8125 L 42.625 18.8125 C 42.332031 18.8125 42.039062 18.8125 41.75 18.8125 C 41.457031 18.8125 41.164062 18.738281 40.875 18.59375 C 40.507812 18.519531 40.148438 18.410156 39.796875 18.265625 C 39.429688 18.117188 39.082031 17.988281 38.75 17.875 C 38.425781 17.769531 38.082031 17.609375 37.71875 17.390625 C 38.300781 15.003906 38.753906 12.757812 39.078125 10.65625 C 39.410156 8.550781 39.648438 6.703125 39.796875 5.109375 C 40.015625 3.222656 40.15625 1.554688 40.21875 0.109375 C 40.289062 -1.773438 40.09375 -3.835938 39.625 -6.078125 C 39.15625 -8.328125 38.429688 -10.539062 37.453125 -12.71875 C 36.472656 -14.894531 35.273438 -16.925781 33.859375 -18.8125 C 32.453125 -20.695312 30.84375 -22.289062 29.03125 -23.59375 C 27.21875 -24.820312 25.492188 -25.617188 23.859375 -25.984375 C 22.234375 -26.347656 20.585938 -26.457031 18.921875 -26.3125 C 18.410156 -24.132812 17.9375 -22.03125 17.5 -20 C 17.0625 -17.96875 16.703125 -16.015625 16.421875 -14.140625 C 15.617188 -9.929688 14.859375 -5.832031 14.140625 -1.84375 C 13.554688 1.5625 12.957031 5.09375 12.34375 8.75 C 11.726562 12.40625 11.273438 15.539062 10.984375 18.15625 C 9.816406 18.738281 8.726562 19.191406 7.71875 19.515625 C 6.707031 19.835938 5.800781 20.070312 5 20.21875 C 4.132812 20.4375 3.300781 20.546875 2.5 20.546875 Z M 45.546875 -27.71875 C 43.015625 -28.007812 40.609375 -28.171875 38.328125 -28.203125 C 36.046875 -28.242188 34.035156 -28.265625 32.296875 -28.265625 C 33.742188 -27.472656 35.023438 -26.421875 36.140625 -25.109375 C 37.265625 -23.804688 38.445312 -22.320312 39.6875 -20.65625 C 40.84375 -19.132812 41.78125 -17.46875 42.5 -15.65625 C 43.226562 -13.84375 43.847656 -12.101562 44.359375 -10.4375 C 44.941406 -13.476562 45.554688 -16.445312 46.203125 -19.34375 C 46.859375 -22.25 47.472656 -24.96875 48.046875 -27.5 C 47.617188 -27.570312 47.203125 -27.625 46.796875 -27.65625 C 46.398438 -27.695312 45.984375 -27.71875 45.546875 -27.71875 Z M 45.546875 -27.71875 "/></g></g></g><g fill="#f0810f" fill-opacity="1"><g transform="translate(200.948701, 273.52015)"><g><path d="M 32.1875 -17.28125 C 31.457031 -14.53125 30.472656 -11.957031 29.234375 -9.5625 C 28.003906 -7.175781 26.535156 -5.113281 24.828125 -3.375 C 23.128906 -1.632812 21.210938 -0.273438 19.078125 0.703125 C 16.941406 1.679688 14.601562 2.171875 12.0625 2.171875 C 9.09375 2.171875 6.753906 1.535156 5.046875 0.265625 C 3.347656 -0.992188 2.082031 -2.566406 1.25 -4.453125 C 0.414062 -6.335938 -0.0859375 -8.40625 -0.265625 -10.65625 C -0.453125 -12.90625 -0.546875 -15.003906 -0.546875 -16.953125 C -0.546875 -18.335938 -0.378906 -19.863281 -0.046875 -21.53125 C 0.273438 -23.195312 0.722656 -24.898438 1.296875 -26.640625 C 1.878906 -28.378906 2.625 -30.117188 3.53125 -31.859375 C 4.4375 -33.597656 5.503906 -35.191406 6.734375 -36.640625 C 7.171875 -37.867188 7.84375 -38.953125 8.75 -39.890625 C 9.65625 -40.835938 10.707031 -41.617188 11.90625 -42.234375 C 13.101562 -42.847656 14.390625 -43.316406 15.765625 -43.640625 C 17.140625 -43.972656 18.476562 -44.140625 19.78125 -44.140625 C 20 -44.140625 20.195312 -44.101562 20.375 -44.03125 C 20.5625 -43.957031 20.765625 -43.882812 20.984375 -43.8125 C 21.921875 -43.738281 23.097656 -43.375 24.515625 -42.71875 C 25.929688 -42.070312 27.304688 -41.09375 28.640625 -39.78125 C 29.984375 -38.476562 31.125 -36.832031 32.0625 -34.84375 C 33.007812 -32.851562 33.484375 -30.441406 33.484375 -27.609375 C 33.484375 -27.035156 33.445312 -26.332031 33.375 -25.5 C 33.300781 -24.664062 33.226562 -23.957031 33.15625 -23.375 C 34.820312 -24.03125 36.5625 -24.828125 38.375 -25.765625 C 40.1875 -26.710938 41.941406 -27.707031 43.640625 -28.75 C 45.347656 -29.800781 46.925781 -30.867188 48.375 -31.953125 C 49.820312 -33.046875 50.984375 -34.03125 51.859375 -34.90625 C 52.585938 -35.550781 53.203125 -35.910156 53.703125 -35.984375 C 54.210938 -36.054688 54.578125 -35.910156 54.796875 -35.546875 C 55.015625 -35.179688 55.050781 -34.671875 54.90625 -34.015625 C 54.757812 -33.367188 54.359375 -32.648438 53.703125 -31.859375 C 53.335938 -31.421875 52.410156 -30.546875 50.921875 -29.234375 C 49.441406 -27.929688 47.6875 -26.519531 45.65625 -25 C 43.632812 -23.476562 41.425781 -21.992188 39.03125 -20.546875 C 36.632812 -19.097656 34.351562 -18.007812 32.1875 -17.28125 Z M 13.8125 -33.8125 C 13.59375 -33.15625 13.484375 -32.46875 13.484375 -31.75 C 13.484375 -30.582031 13.554688 -29.363281 13.703125 -28.09375 C 13.847656 -26.832031 14.207031 -25.691406 14.78125 -24.671875 C 15.363281 -23.660156 16.285156 -22.8125 17.546875 -22.125 C 18.816406 -21.4375 20.578125 -21.09375 22.828125 -21.09375 C 23.191406 -21.09375 23.554688 -21.109375 23.921875 -21.140625 C 24.285156 -21.179688 24.644531 -21.238281 25 -21.3125 C 25.21875 -22.25 25.414062 -23.097656 25.59375 -23.859375 C 25.78125 -24.617188 25.875 -25.289062 25.875 -25.875 C 26.019531 -27.25 26.019531 -28.660156 25.875 -30.109375 C 25.726562 -31.566406 25.457031 -32.890625 25.0625 -34.078125 C 24.664062 -35.273438 24.15625 -36.253906 23.53125 -37.015625 C 22.914062 -37.773438 22.175781 -38.15625 21.3125 -38.15625 C 19.9375 -38.15625 18.613281 -37.773438 17.34375 -37.015625 C 16.070312 -36.253906 14.894531 -35.1875 13.8125 -33.8125 Z M 6.84375 -14.671875 C 6.84375 -13.367188 6.914062 -12.082031 7.0625 -10.8125 C 7.207031 -9.550781 7.5 -8.429688 7.9375 -7.453125 C 8.375 -6.472656 8.953125 -5.671875 9.671875 -5.046875 C 10.398438 -4.429688 11.34375 -4.125 12.5 -4.125 C 13.800781 -4.125 14.992188 -4.429688 16.078125 -5.046875 C 17.171875 -5.671875 18.148438 -6.472656 19.015625 -7.453125 C 19.890625 -8.429688 20.671875 -9.550781 21.359375 -10.8125 C 22.046875 -12.082031 22.644531 -13.40625 23.15625 -14.78125 C 22.644531 -14.707031 22.15625 -14.648438 21.6875 -14.609375 C 21.21875 -14.578125 20.691406 -14.5625 20.109375 -14.5625 C 17.359375 -14.5625 14.984375 -15.375 12.984375 -17 C 10.992188 -18.632812 9.457031 -20.722656 8.375 -23.265625 C 7.9375 -21.742188 7.570312 -20.257812 7.28125 -18.8125 C 6.988281 -17.363281 6.84375 -15.984375 6.84375 -14.671875 Z M 6.84375 -14.671875 "/></g></g></g><g fill="#f0810f" fill-opacity="1"><g transform="translate(244.758156, 273.52015)"><g><path d="M 50.65625 -5 C 50.65625 -6.519531 50.816406 -8.257812 51.140625 -10.21875 C 51.472656 -12.175781 51.890625 -14.1875 52.390625 -16.25 C 52.898438 -18.320312 53.410156 -20.332031 53.921875 -22.28125 C 54.429688 -24.238281 54.867188 -25.976562 55.234375 -27.5 C 55.660156 -29.382812 55.617188 -30.832031 55.109375 -31.84375 C 54.609375 -32.863281 53.742188 -33.375 52.515625 -33.375 C 51.929688 -33.375 50.785156 -32.863281 49.078125 -31.84375 C 47.378906 -30.832031 45.53125 -29.078125 43.53125 -26.578125 C 41.539062 -24.078125 39.585938 -20.707031 37.671875 -16.46875 C 35.753906 -12.226562 34.25 -6.847656 33.15625 -0.328125 C 31.78125 0.398438 30.476562 0.875 29.25 1.09375 C 28.59375 1.226562 28.007812 1.332031 27.5 1.40625 C 26.050781 1.476562 25.109375 1.242188 24.671875 0.703125 C 24.242188 0.160156 24.316406 -1.160156 24.890625 -3.265625 C 25.179688 -4.273438 25.707031 -5.90625 26.46875 -8.15625 C 27.226562 -10.40625 27.96875 -12.847656 28.6875 -15.484375 C 29.414062 -18.128906 30.050781 -20.773438 30.59375 -23.421875 C 31.144531 -26.066406 31.421875 -28.367188 31.421875 -30.328125 C 31.421875 -31.703125 31.179688 -32.644531 30.703125 -33.15625 C 30.234375 -33.664062 29.566406 -33.921875 28.703125 -33.921875 C 28.046875 -33.921875 26.957031 -33.554688 25.4375 -32.828125 C 23.914062 -32.109375 22.210938 -30.695312 20.328125 -28.59375 C 18.441406 -26.488281 16.570312 -23.566406 14.71875 -19.828125 C 12.875 -16.097656 11.300781 -11.265625 10 -5.328125 L 10 -5.546875 C 9.851562 -4.960938 9.707031 -4.382812 9.5625 -3.8125 C 9.414062 -3.300781 9.304688 -2.753906 9.234375 -2.171875 C 9.160156 -1.585938 9.054688 -1.046875 8.921875 -0.546875 L 3.484375 1.84375 C 3.117188 1.988281 2.660156 2.097656 2.109375 2.171875 C 1.566406 2.242188 1.0625 2.148438 0.59375 1.890625 C 0.125 1.640625 -0.21875 1.113281 -0.4375 0.3125 C -0.65625 -0.476562 -0.582031 -1.671875 -0.21875 -3.265625 L 6.625 -31.640625 C 6.84375 -32.578125 7.023438 -33.484375 7.171875 -34.359375 C 7.316406 -35.148438 7.40625 -35.925781 7.4375 -36.6875 C 7.476562 -37.445312 7.425781 -38.082031 7.28125 -38.59375 C 8.507812 -39.175781 9.59375 -39.609375 10.53125 -39.890625 C 11.476562 -40.179688 12.242188 -40.398438 12.828125 -40.546875 C 13.554688 -40.765625 14.171875 -40.875 14.671875 -40.875 C 16.992188 -40.875 17.753906 -38.882812 16.953125 -34.90625 C 16.671875 -33.738281 16.238281 -32.03125 15.65625 -29.78125 C 17.03125 -31.519531 18.492188 -33.171875 20.046875 -34.734375 C 21.609375 -36.296875 23.1875 -37.691406 24.78125 -38.921875 C 26.382812 -40.148438 28 -41.125 29.625 -41.84375 C 31.257812 -42.570312 32.875 -42.9375 34.46875 -42.9375 C 35.695312 -42.9375 36.726562 -42.570312 37.5625 -41.84375 C 38.394531 -41.125 39.046875 -40.164062 39.515625 -38.96875 C 39.984375 -37.78125 40.253906 -36.367188 40.328125 -34.734375 C 40.398438 -33.109375 40.332031 -31.425781 40.125 -29.6875 C 41.28125 -31.207031 42.5625 -32.742188 43.96875 -34.296875 C 45.382812 -35.859375 46.867188 -37.253906 48.421875 -38.484375 C 49.984375 -39.710938 51.597656 -40.722656 53.265625 -41.515625 C 54.929688 -42.316406 56.597656 -42.71875 58.265625 -42.71875 C 60.222656 -42.71875 61.726562 -42.140625 62.78125 -40.984375 C 63.832031 -39.828125 64.554688 -38.34375 64.953125 -36.53125 C 65.359375 -34.71875 65.46875 -32.757812 65.28125 -30.65625 C 65.101562 -28.550781 64.796875 -26.523438 64.359375 -24.578125 L 60.671875 -9.890625 C 59.867188 -6.265625 60.628906 -4.453125 62.953125 -4.453125 C 64.765625 -4.453125 66.753906 -5.320312 68.921875 -7.0625 C 71.097656 -8.800781 73.21875 -10.863281 75.28125 -13.25 C 77.351562 -15.644531 79.296875 -18.113281 81.109375 -20.65625 C 82.921875 -23.195312 84.441406 -25.226562 85.671875 -26.75 C 86.109375 -27.25 86.5625 -27.535156 87.03125 -27.609375 C 87.5 -27.679688 87.894531 -27.59375 88.21875 -27.34375 C 88.550781 -27.09375 88.734375 -26.675781 88.765625 -26.09375 C 88.804688 -25.507812 88.609375 -24.785156 88.171875 -23.921875 C 86.722656 -21.378906 84.945312 -18.566406 82.84375 -15.484375 C 80.738281 -12.410156 78.4375 -9.53125 75.9375 -6.84375 C 73.4375 -4.164062 70.769531 -1.921875 67.9375 -0.109375 C 65.113281 1.703125 62.179688 2.609375 59.140625 2.609375 C 58.128906 2.609375 57.132812 2.5 56.15625 2.28125 C 55.175781 2.0625 54.269531 1.660156 53.4375 1.078125 C 52.601562 0.503906 51.929688 -0.269531 51.421875 -1.25 C 50.910156 -2.226562 50.65625 -3.476562 50.65625 -5 Z M 50.65625 -5 "/></g></g></g><g fill="#f0810f" fill-opacity="1"><g transform="translate(324.658776, 273.52015)"><g><path d="M 49.25 -22.609375 C 47.070312 -19.421875 44.601562 -16.320312 41.84375 -13.3125 C 39.09375 -10.3125 36.175781 -7.628906 33.09375 -5.265625 C 30.019531 -2.910156 26.867188 -1.007812 23.640625 0.4375 C 20.421875 1.882812 17.285156 2.609375 14.234375 2.609375 C 12.640625 2.609375 10.921875 2.226562 9.078125 1.46875 C 7.234375 0.707031 5.546875 -0.46875 4.015625 -2.0625 C 2.492188 -3.65625 1.28125 -5.71875 0.375 -8.25 C -0.53125 -10.789062 -0.800781 -13.875 -0.4375 -17.5 C -0.144531 -20.476562 0.773438 -23.613281 2.328125 -26.90625 C 3.890625 -30.207031 5.8125 -33.234375 8.09375 -35.984375 C 10.382812 -38.742188 12.957031 -41.023438 15.8125 -42.828125 C 18.675781 -44.640625 21.5625 -45.546875 24.46875 -45.546875 C 27.21875 -45.546875 29.207031 -44.859375 30.4375 -43.484375 C 31.675781 -42.109375 32.222656 -40.40625 32.078125 -38.375 C 31.859375 -36.125 31.222656 -34.054688 30.171875 -32.171875 C 29.117188 -30.296875 27.867188 -28.59375 26.421875 -27.0625 C 24.972656 -25.539062 23.429688 -24.164062 21.796875 -22.9375 C 20.171875 -21.707031 18.628906 -20.582031 17.171875 -19.5625 C 15.578125 -18.476562 14.054688 -17.445312 12.609375 -16.46875 C 11.160156 -15.488281 9.894531 -14.601562 8.8125 -13.8125 C 8.882812 -12 9.207031 -10.472656 9.78125 -9.234375 C 10.363281 -8.003906 11.085938 -7.007812 11.953125 -6.25 C 12.828125 -5.488281 13.828125 -4.941406 14.953125 -4.609375 C 16.078125 -4.285156 17.21875 -4.125 18.375 -4.125 C 20.832031 -4.125 23.398438 -4.90625 26.078125 -6.46875 C 28.765625 -8.03125 31.394531 -9.914062 33.96875 -12.125 C 36.539062 -14.332031 38.929688 -16.628906 41.140625 -19.015625 C 43.359375 -21.410156 45.191406 -23.476562 46.640625 -25.21875 C 47.148438 -25.800781 47.675781 -26.144531 48.21875 -26.25 C 48.757812 -26.363281 49.191406 -26.289062 49.515625 -26.03125 C 49.847656 -25.78125 50.015625 -25.347656 50.015625 -24.734375 C 50.015625 -24.117188 49.757812 -23.410156 49.25 -22.609375 Z M 21.421875 -39.359375 C 20.546875 -39.359375 19.507812 -38.921875 18.3125 -38.046875 C 17.125 -37.179688 15.945312 -35.929688 14.78125 -34.296875 C 13.625 -32.671875 12.535156 -30.675781 11.515625 -28.3125 C 10.503906 -25.957031 9.742188 -23.257812 9.234375 -20.21875 C 10.109375 -20.875 11.050781 -21.546875 12.0625 -22.234375 C 13.082031 -22.921875 14.097656 -23.664062 15.109375 -24.46875 C 18.222656 -26.851562 20.394531 -28.953125 21.625 -30.765625 C 22.863281 -32.578125 23.554688 -34.132812 23.703125 -35.4375 C 23.847656 -36.820312 23.703125 -37.820312 23.265625 -38.4375 C 22.828125 -39.050781 22.210938 -39.359375 21.421875 -39.359375 Z M 21.421875 -39.359375 "/></g></g></g></svg>